<?xml version="1.0" encoding="UTF-8" standalone="no"?>
<svg
   xmlns:dc="http://purl.org/dc/elements/1.1/"
   xmlns:cc="http://creativecommons.org/ns#"
   xmlns:rdf="http://www.w3.org/1999/02/22-rdf-syntax-ns#"
   xmlns:svg="http://www.w3.org/2000/svg"
   xmlns="http://www.w3.org/2000/svg"
   viewBox="0 0 2560 1440"
   height="1440"
   width="2560"
   xml:space="preserve"
   id="svg2"
   version="1.1"><metadata
     id="metadata8"><rdf:RDF><cc:Work
         rdf:about=""><dc:format>image/svg+xml</dc:format><dc:type
           rdf:resource="http://purl.org/dc/dcmitype/StillImage" /></cc:Work></rdf:RDF></metadata><defs
     id="defs6"><clipPath
       id="clipPath20"
       clipPathUnits="userSpaceOnUse"><path
         id="path18"
         d="M 0,1080 H 1920 V 0 H 0 Z" /></clipPath></defs><g
     transform="matrix(1.3333333,0,0,-1.3333333,0,1440)"
     id="g10"><path
       id="path12"
       style="fill:#000000;fill-opacity:1;fill-rule:nonzero;stroke:none"
       d="M 0,0 H 1920 V 1080 H 0 Z" /><g
       id="g14"><g
         clip-path="url(#clipPath20)"
         id="g16"><g
           transform="translate(532.1345,519.6154)"
           id="g22"><path
             id="path24"
             style="fill:#ffffff;fill-opacity:1;fill-rule:nonzero;stroke:none"
             d="m 0,0 v -26.198 h 75.114 c 6.781,0 11.476,1.318 14.084,3.948 2.609,2.631 3.913,5.682 3.913,9.15 v 0.718 C 93.111,-4.128 87.112,0 75.114,0 Z m 0,28.347 h 71.203 c 10.561,0 15.844,3.589 15.844,10.764 v 0.36 c 0,7.057 -5.283,10.585 -15.844,10.585 L 0,50.056 Z M -45.576,78.226 H 79.025 c 19.301,0 32.992,-2.841 41.079,-8.523 8.085,-5.682 12.127,-13.008 12.127,-21.978 v -2.512 c 0,-4.067 -0.814,-7.744 -2.445,-11.035 -1.63,-3.289 -3.815,-5.921 -6.553,-7.894 -2.739,-1.974 -5.217,-3.499 -7.434,-4.576 -2.217,-1.077 -4.433,-1.913 -6.65,-2.512 3.131,-0.718 6.193,-1.734 9.192,-3.051 3.002,-1.315 6.327,-3.2 9.977,-5.651 3.65,-2.451 6.585,-5.831 8.802,-10.136 2.218,-4.305 3.325,-9.21 3.325,-14.712 v -2.513 c 0,-25.597 -20.082,-38.395 -60.248,-38.395 H -45.576 Z" /></g><path
           id="path26"
           style="fill:#ffffff;fill-opacity:1;fill-rule:nonzero;stroke:none"
           d="m 720.831,464.777 h -43.384 v 132.768 h 43.384 z" /><g
           transform="translate(1047.9315,509.0359)"
           id="g28"><path
             id="path30"
             style="fill:#ffffff;fill-opacity:1;fill-rule:nonzero;stroke:none"
             d="m 0,0 c 0,-6.001 0,-19.198 -15.358,-20.158 -8.104,-0.506 -270.302,-0.509 -270.302,-0.509 -5.809,0 -10.519,4.71 -10.519,10.52 0,5.809 4.71,10.122 10.519,10.122 z m 46.513,-16.691 c -3.378,0 -5.067,1.618 -5.067,4.86 v 37.113 c 0,3.481 0.79,30.391 -26.087,31.352 -4.525,0.162 -335.106,-0.008 -335.106,-0.008 V 34.178 c 0,0 306.354,0.036 313.975,0.036 6.225,0 8.322,-3.474 8.322,-7.047 0,-3.572 -2.196,-7.74 -8.547,-7.74 0,0 -204.14,0.028 -272.864,0.028 -17.021,0 -25.057,-4.263 -31.389,-8.825 -6.33,-4.565 -9.497,-10.655 -9.497,-21.438 0,-8.867 3.71,-16.693 11.126,-22.699 7.417,-6.002 18.785,-9.005 34.101,-9.005 0,0 251.266,1.78 259.162,2.196 18.238,0.96 15.978,6.928 18.993,10.652 1.447,-8.886 6.574,-13.328 15.378,-13.328 h 28.779 v 26.301 z" /></g><g
           transform="translate(1145.4279,561.2283)"
           id="g32"><path
             id="path34"
             style="fill:#ffffff;fill-opacity:1;fill-rule:nonzero;stroke:none"
             d="M 0,0 V -16.416 C 13.489,-4.044 30.804,2.143 51.945,2.143 h 1.362 c 16.991,0 29.734,-3.658 38.23,-10.974 8.496,-7.317 12.743,-16.151 12.743,-26.5 V -96.005 H 60.506 v 47.467 c 0,7.615 -2.335,13.504 -7.004,17.667 -4.67,4.164 -11.673,6.246 -21.012,6.246 -9.727,0 -17.509,-2.38 -23.347,-7.139 C 3.307,-36.523 0.388,-42.828 0.388,-50.68 V -96.006 H -42.996 V 0 Z" /></g><g
           transform="translate(1258.3037,597.545)"
           id="g36"><path
             id="path38"
             style="fill:#ffffff;fill-opacity:1;fill-rule:nonzero;stroke:none"
             d="m 0,0 h 43.384 v -75.129 l 42.411,38.368 h 48.054 L 84.433,-80.125 139.88,-132.768 H 88.909 l -45.525,44.077 v -44.077 H 0 Z" /></g><path
           id="path40"
           style="fill:#ffffff;fill-opacity:1;fill-rule:nonzero;stroke:none"
           d="m 1430.793,460.17 h -39.457 v 26.28 h 39.457 z" /></g></g></g></svg>