<?xml version="1.0" encoding="UTF-8"?>
<svg id="Capa_2" data-name="Capa 2" xmlns="http://www.w3.org/2000/svg" viewBox="0 0 91.14 68.76">
  <defs>
    <style>
      .cls-1 {
        fill: #000000;
      }
    </style>
  </defs>
  <g id="Capa_1-2" data-name="Capa 1">
    <g>
      <path class="cls-1" d="M91.14,39.47v-13.56c-27.91,0-55.82-.01-83.73-.02-2.47,0-4.94,0-7.41,0v13.58c30.38,0,60.76,0,91.14,0Z"/>
      <path class="cls-1" d="M82.31,53.73c-7.23,0-14.46,0-21.69.01-7.44,0-14.87.01-22.31.02-8.54,0-17.08.02-25.63.03-4.23,0-8.45,0-12.68,0v14.97c3.95-.03,7.9-.06,11.85-.09,6.15-.05,12.29-.09,18.44-.14,5.99-.05,11.97-.09,17.96-.14,5.92-.05,11.83-.09,17.75-.14,5.69-.05,11.37-.09,17.06-.14,2.7-.02,5.39-.04,8.09-.07v-14.34c-2.95,0-5.89.02-8.84.02Z"/>
      <path class="cls-1" d="M91.14,0c-13.5,0-27,0-40.49,0C33.77,0,16.88.01,0,.01v15.68c35.97.02,66.82.04,91.14.04V0Z"/>
    </g>
  </g>
</svg>