<svg version="1.2" xmlns="http://www.w3.org/2000/svg" viewBox="0 0 1084 308" width="1084" height="308">
	<style>
		.s0 { fill: #ffffff } 
	</style>
	<g id="Logo">
		<g id="&lt;Group&gt;">
			<g id="&lt;Group&gt;">
				<g id="&lt;Group&gt;">
					<path id="&lt;Compound Path&gt;" fill-rule="evenodd" class="s0" d="m102.56 78.16h124.6q28.95 0 41.08 8.52 12.13 8.53 12.13 21.98v2.51q0 6.1-2.45 11.04-2.44 4.93-6.55 7.89-4.11 2.96-7.44 4.58-3.32 1.61-6.65 2.51 4.7 1.07 9.2 3.05 4.5 1.97 9.97 5.65 5.48 3.68 8.8 10.14 3.33 6.46 3.33 14.71v2.51q0 38.4-60.25 38.4h-125.77zm45.57 49.88h71.21q15.84-0.01 15.84-10.77v-0.36q0-10.58-15.84-10.58h-71.21zm0 28.34v26.2h75.12q10.17 0 14.08-3.95 3.92-3.94 3.92-9.15v-0.72q0-12.38-18-12.38z"/>
				</g>
				<g id="&lt;Group&gt;">
					<path id="&lt;Compound Path&gt;" class="s0" d="m336.83 211.22h-43.38v-132.77h43.38z"/>
				</g>
				<g id="&lt;Group&gt;">
					<path id="&lt;Compound Path&gt;" fill-rule="evenodd" class="s0" d="m711.72 183.66v26.3h-28.78q-13.2 0-15.37-13.33c-3.02 3.72-0.76 9.69-19 10.65-7.89 0.42-259.16 2.2-259.16 2.2q-22.97 0-34.1-9.01c-7.42-6.01-11.13-13.83-11.13-22.7 0-10.78 3.17-16.87 9.5-21.44 6.33-4.56 14.37-8.82 31.39-8.82 68.72 0 272.86 0.03 272.86 0.03 6.36 0 8.55-4.17 8.55-7.74 0-3.58-2.1-7.05-8.32-7.05-7.62 0-313.98 0.04-313.98 0.04v-22.45c0 0 330.59-0.17 335.11-0.01 26.88 0.96 26.09 27.87 26.09 31.35v37.11q0 4.87 5.06 4.87zm-333.45-16.67c-5.81 0-10.52 4.31-10.52 10.12 0 5.81 4.71 10.52 10.52 10.52 0 0 262.2 0 270.31-0.51 15.35-0.96 15.35-14.15 15.35-20.16z"/>
				</g>
				<g id="&lt;Group&gt;">
					<path id="&lt;Compound Path&gt;" class="s0" d="m761.43 114.77v16.42q20.23-18.56 51.94-18.56h1.36q25.49 0 38.23 10.97 12.75 10.98 12.75 26.5v60.68h-43.78v-47.47q0-11.42-7-17.67-7-6.24-21.01-6.24-14.59 0-23.35 7.14-8.75 7.13-8.75 18.91v45.33h-43.39v-96.01z"/>
				</g>
				<g id="&lt;Group&gt;">
					<path id="&lt;Compound Path&gt;" class="s0" d="m874.3 78.45h43.39v75.13l42.41-38.36h48.05l-49.41 43.36 55.44 52.64h-50.97l-45.52-44.07v44.07h-43.39z"/>
				</g>
				<g id="&lt;Group&gt;">
					<path id="&lt;Compound Path&gt;" class="s0" d="m1046.79 215.83h-39.45v-26.28h39.45z"/>
				</g>
			</g>
		</g>
	</g>
</svg>